GIL06_fast3_RRA_states
nRows=4
nColumns=47

# SIMM Motion File Header:
name GIL06_fast3_RRA_states
datacolumns 47
datarows 4
otherdata 1
range 0.57167000000000034000 0.57317000000000029000
endheader
time	pelvis_tx	pelvis_ty	pelvis_tz	pelvis_tilt	pelvis_list	pelvis_rotation	hip_flexion_r	hip_adduction_r	hip_rotation_r	knee_angle_r	ankle_angle_r	subtalar_angle_r	mtp_angle_r	hip_flexion_l	hip_adduction_l	hip_rotation_l	knee_angle_l	ankle_angle_l	subtalar_angle_l	mtp_angle_l	lumbar_extension	lumbar_bending	lumbar_rotation	pelvis_tx_u	pelvis_ty_u	pelvis_tz_u	pelvis_tilt_u	pelvis_list_u	pelvis_rotation_u	hip_flexion_r_u	hip_adduction_r_u	hip_rotation_r_u	knee_angle_r_u	ankle_angle_r_u	subtalar_angle_r_u	mtp_angle_r_u	hip_flexion_l_u	hip_adduction_l_u	hip_rotation_l_u	knee_angle_l_u	ankle_angle_l_u	subtalar_angle_l_u	mtp_angle_l_u	lumbar_extension_u	lumbar_bending_u	lumbar_rotation_u
      0.57167000000000034000	      0.64944616332519967000	      0.81326669674722685000	     -0.27387686894369795000	     -4.47569584602875810000	     -1.95245390381925920000	      1.76504513642685290000	     33.00464676476581600000	      3.05280492806369440000	      4.95120384701771420000	    -15.40100331851148500000	     -9.63916839424043560000	      0.00000000000001202680	     -0.00000000000000793329	    -12.06046608443069500000	     -3.01306254448164120000	     -6.00232574646866100000	    -26.41356248357460100000	    -11.81834070382003600000	     -0.00000000000004025297	      0.00000000000008394213	      9.71826153570444080000	     -1.78009864780781730000	      4.50973334611561060000	      1.63745084197501110000	      0.11455856371248894000	      0.15768377588590801000	     28.43679300129876700000	    -33.81864176303474100000	    -21.64285704593452300000	    -43.59555561471566400000	     51.58949950086536500000	    -51.59730801989263000000	   -161.92833463888019000000	    -25.41909070837469300000	      0.00000000000011507695	      0.00000000000011486359	     77.41330271479417000000	    -93.17147768788029800000	    -15.86321495605784400000	   -308.38182368792349000000	   -424.48801759614463000000	     -0.00000000000044838355	      0.00000000000099526591	     -6.19154467851137190000	     35.62473901604804600000	     25.62735953601503900000
      0.57217000000000029000	      0.65026454958883961000	      0.81332414394582309000	     -0.27379785133094237000	     -4.46140902994244200000	     -1.96942059731882860000	      1.75422570006715020000	     32.98279056892013000000	      3.07868376505595220000	      4.92524597792374590000	    -15.48207523984248500000	     -9.65122588660842600000	      0.00000000000001208308	     -0.00000000000000787381	    -12.02156604307984000000	     -3.05978174383710040000	     -6.01018901512144940000	    -26.56802016237328700000	    -12.03066975745899500000	     -0.00000000000004047687	      0.00000000000008443645	      9.71503945851148560000	     -1.76226902300608130000	      4.52260307397898750000	      1.63608899908132940000	      0.11522739198775019000	      0.15838519515048158000	     28.71061787010888400000	    -34.04834121011732200000	    -21.63490064007169900000	    -43.83114369263853400000	     51.92662013981551200000	    -52.23135458123300600000	   -162.35506701351008000000	    -22.81065208964948700000	      0.00000000000011761808	      0.00000000000011879291	     78.18624876288880900000	    -93.70536550053749600000	    -15.59102296938035400000	   -309.44806690333013000000	   -424.81584929296685000000	     -0.00000000000045338981	      0.00000000000100001861	     -6.69744102855023020000	     35.69406238706551400000	     25.85221430345360700000
      0.57267000000000035000	      0.65108224714808249000	      0.81338192131575127000	     -0.27371848524789633000	     -4.44698504924279980000	     -1.98650242437027820000	      1.74341021626164290000	     32.96081369040950200000	      3.10473230096787090000	      4.89897530868751650000	    -15.56335427683452900000	     -9.66197827386606180000	      0.00000000000001213970	     -0.00000000000000780505	    -11.98228054055885400000	     -3.10676788290562560000	     -6.01791782451710940000	    -26.72300970885378700000	    -12.24314323264603200000	     -0.00000000000004070271	      0.00000000000008493005	      9.71156338202873390000	     -1.74440431110889340000	      4.53558623668503550000	      1.63469610188405690000	      0.11587927925023421000	      0.15907761420800787000	     28.98551685938865000000	    -34.27911477782122800000	    -21.62705999737569600000	    -44.07831798424543700000	     52.26825356008197300000	    -52.84850094708603800000	   -162.75714357304284000000	    -20.19759350830876300000	      0.00000000000009667712	      0.00000000000016623685	     78.95496425820785200000	    -94.23908803958951800000	    -15.32516008906747200000	   -310.50926366878275000000	   -425.06372841710072000000	     -0.00000000000045137699	      0.00000000000097943293	     -7.20761372845667210000	     35.76502955444958300000	     26.08112528898631400000
      0.57317000000000029000	      0.65189924050532411000	      0.81344002041161789000	     -0.27363877524034280000	     -4.43242335194223540000	     -2.00369989060316510000	      1.73259860748073870000	     32.93871029860122900000	      3.13095276472862420000	      4.87240034315662650000	    -15.64482822219092400000	     -9.67142286265104010000	      0.00000000000001218850	     -0.00000000000000772913	    -11.94261178977757300000	     -3.15402078358419710000	     -6.02551524283627420000	    -26.87852856127131700000	    -12.45572013641035600000	     -0.00000000000004092932	      0.00000000000008542559	      9.70783114856600090000	     -1.72650370575219260000	      4.54868487459609930000	      1.63327209494463780000	      0.11651428518393329000	      0.15976088800677957000	     29.26138301927479500000	    -34.51095787779667700000	    -21.61941352339293600000	    -44.33720799219470600000	     52.61436047009373600000	    -53.44844795169884600000	   -163.13424919744614000000	    -17.58084577865820100000	      0.00000000000010337650	      0.00000000000014236266	     79.71941313313406900000	    -94.77251903465001700000	    -15.06570088991810700000	   -311.56527340822703000000	   -425.23148661306976000000	     -0.00000000000045590761	      0.00000000000100239231	     -7.72196388569259980000	     35.83772128747319400000	     26.31408675583826100000
